ply
format ascii 1.0
comment Created by Blender 2.78 (sub 0) - www.blender.org, source file: ''
element vertex 72
property float x
property float y
property float z
property float nx
property float ny
property float nz
property float s
property float t
element face 22
property list uchar uint vertex_indices
end_header
1.000000 -1.000000 -1.000000 1.000000 0.000000 0.000000 0.710248 0.000000
1.000000 4.011838 -1.000000 1.000000 0.000000 0.000000 0.710248 0.357662
1.000000 4.011838 1.000000 1.000000 0.000000 0.000000 0.551238 0.357662
1.000000 -1.000000 1.000000 1.000000 0.000000 0.000000 0.551238 0.000000
1.000000 -1.000000 1.000000 -0.000000 0.000000 1.000000 1.000000 0.000000
1.000000 4.011838 1.000000 -0.000000 0.000000 1.000000 1.000000 0.357662
-1.000000 4.011838 1.000000 -0.000000 0.000000 1.000000 0.840990 0.357662
-1.000000 -1.000000 1.000000 -0.000000 0.000000 1.000000 0.840990 0.000000
-1.000000 -1.000000 1.000000 -1.000000 0.000000 0.000000 0.289752 0.000000
-1.000000 4.011838 1.000000 -1.000000 0.000000 0.000000 0.289752 0.357662
-1.000000 4.011838 -1.000000 -1.000000 0.000000 0.000000 0.130743 0.357662
-1.000000 -1.000000 -1.000000 -1.000000 0.000000 0.000000 0.130743 0.000000
1.000000 4.011838 -1.000000 0.000000 0.000000 -1.000000 1.000000 0.357662
1.000000 -1.000000 -1.000000 0.000000 0.000000 -1.000000 1.000000 0.715325
-1.000000 -1.000000 -1.000000 0.000000 0.000000 -1.000000 0.840990 0.715325
-1.000000 4.011838 -1.000000 0.000000 0.000000 -1.000000 0.840990 0.357662
-1.000000 -1.000000 -1.000000 0.000000 -1.000000 -0.000000 0.840990 0.715325
1.000000 -1.000000 -1.000000 0.000000 -1.000000 -0.000000 1.000000 0.715325
1.000000 -1.000000 1.000000 0.000000 -1.000000 -0.000000 1.000000 0.858052
-1.000000 -1.000000 1.000000 0.000000 -1.000000 -0.000000 0.840990 0.858052
1.000000 6.404304 -1.000000 1.000000 0.000000 0.000000 0.710248 0.528397
1.000000 6.404304 1.000000 1.000000 0.000000 0.000000 0.551238 0.528397
-1.000000 6.404304 1.000000 0.000000 0.000000 1.000000 0.477029 0.844679
1.000000 6.404304 1.000000 0.000000 0.000000 1.000000 0.318019 0.844679
1.000000 8.620297 1.000000 0.000000 0.000000 1.000000 0.318019 0.686538
-1.000000 8.620297 1.000000 0.000000 0.000000 1.000000 0.477029 0.686538
1.000000 4.011838 -1.000000 0.000000 -1.000000 0.000000 0.636038 0.971992
-1.000000 4.011838 -1.000000 0.000000 -1.000000 0.000000 0.636038 0.829265
-1.000000 4.011838 -2.644466 0.000000 -1.000000 0.000000 0.766781 0.829265
1.000000 4.011838 -2.644466 0.000000 -1.000000 0.000000 0.766781 0.971992
1.000000 6.404304 1.000000 0.000000 1.000000 0.000000 0.318019 0.987406
-1.000000 6.404304 1.000000 0.000000 1.000000 0.000000 0.318019 0.844679
-1.000000 6.404304 2.644466 0.000000 1.000000 0.000000 0.448762 0.844679
1.000000 6.404304 2.644466 0.000000 1.000000 0.000000 0.448762 0.987406
-1.000000 6.404304 1.000000 -1.000000 -0.000000 0.000000 0.289752 0.528397
-1.000000 6.404304 -1.000000 -1.000000 -0.000000 0.000000 0.130743 0.528397
-1.000000 8.620297 1.000000 0.000000 1.000000 -0.000000 0.795048 0.686538
1.000000 8.620297 1.000000 0.000000 1.000000 -0.000000 0.795048 0.829265
1.000000 8.620297 -1.000000 0.000000 1.000000 -0.000000 0.636038 0.829265
-1.000000 8.620297 -1.000000 0.000000 1.000000 -0.000000 0.636038 0.686538
-1.000000 8.620297 1.000000 -1.000000 -0.000000 0.000000 0.289752 0.686538
-1.000000 8.620297 -1.000000 -1.000000 -0.000000 0.000000 0.130743 0.686538
1.000000 8.620297 -1.000000 1.000000 0.000000 0.000000 0.710248 0.686538
1.000000 8.620297 1.000000 1.000000 0.000000 0.000000 0.551238 0.686538
1.000000 6.404304 -1.000000 0.000000 -0.000000 -1.000000 0.636038 0.844679
-1.000000 6.404304 -1.000000 0.000000 -0.000000 -1.000000 0.477029 0.844679
-1.000000 8.620297 -1.000000 0.000000 -0.000000 -1.000000 0.477029 0.686538
1.000000 8.620297 -1.000000 0.000000 -0.000000 -1.000000 0.636038 0.686538
1.000000 4.011838 -2.644466 0.000000 -0.000000 -1.000000 0.159010 0.857273
-1.000000 4.011838 -2.644466 0.000000 -0.000000 -1.000000 0.000000 0.857273
-1.000000 6.404304 -2.644466 0.000000 -0.000000 -1.000000 0.000000 0.686538
1.000000 6.404304 -2.644466 0.000000 -0.000000 -1.000000 0.159010 0.686538
-1.000000 4.011838 2.644466 0.000000 0.000000 1.000000 0.318019 0.857273
1.000000 4.011838 2.644466 0.000000 0.000000 1.000000 0.159010 0.857273
1.000000 6.404304 2.644466 0.000000 0.000000 1.000000 0.159010 0.686538
-1.000000 6.404304 2.644466 0.000000 0.000000 1.000000 0.318019 0.686538
-1.000000 6.404304 -2.644466 -1.000000 0.000000 0.000000 0.000000 0.528397
-1.000000 4.011838 -2.644466 -1.000000 0.000000 0.000000 0.000000 0.357662
1.000000 4.011838 -2.644466 1.000000 0.000000 -0.000000 0.840990 0.357662
1.000000 6.404304 -2.644466 1.000000 0.000000 -0.000000 0.840990 0.528397
-1.000000 4.011838 1.000000 0.000000 -1.000000 -0.000000 0.130743 0.857273
1.000000 4.011838 1.000000 0.000000 -1.000000 -0.000000 0.130743 1.000000
1.000000 4.011838 2.644466 0.000000 -1.000000 -0.000000 0.000000 1.000000
-1.000000 4.011838 2.644466 0.000000 -1.000000 -0.000000 0.000000 0.857273
-1.000000 4.011838 2.644466 -1.000000 0.000000 -0.000000 0.420495 0.357662
-1.000000 6.404304 2.644466 -1.000000 0.000000 -0.000000 0.420495 0.528397
1.000000 6.404304 2.644466 1.000000 0.000000 0.000000 0.420495 0.528397
1.000000 4.011838 2.644466 1.000000 0.000000 0.000000 0.420495 0.357662
-1.000000 6.404304 -1.000000 0.000000 1.000000 -0.000000 0.448762 0.987406
1.000000 6.404304 -1.000000 0.000000 1.000000 -0.000000 0.448762 0.844679
1.000000 6.404304 -2.644466 0.000000 1.000000 -0.000000 0.579505 0.844679
-1.000000 6.404304 -2.644466 0.000000 1.000000 -0.000000 0.579505 0.987406
4 0 1 2 3
4 4 5 6 7
4 8 9 10 11
4 12 13 14 15
4 16 17 18 19
4 2 1 20 21
4 22 23 24 25
4 26 27 28 29
4 30 31 32 33
4 10 9 34 35
4 36 37 38 39
4 35 34 40 41
4 21 20 42 43
4 44 45 46 47
4 48 49 50 51
4 52 53 54 55
4 10 35 56 57
4 20 1 58 59
4 60 61 62 63
4 34 9 64 65
4 2 21 66 67
4 68 69 70 71
