ply
format ascii 1.0
comment Created by Blender 2.78 (sub 0) - www.blender.org, source file: ''
element vertex 30
property float x
property float y
property float z
property float nx
property float ny
property float nz
property float s
property float t
element face 9
property list uchar uint vertex_indices
end_header
2.378370 -1.000000 -1.000000 1.000000 0.000000 0.000000 0.000000 1.000000
2.378370 1.000000 -1.000000 1.000000 0.000000 0.000000 0.000000 0.754232
2.378370 1.000000 1.000000 1.000000 0.000000 0.000000 0.228258 0.754232
2.378370 -1.000000 1.000000 1.000000 0.000000 0.000000 0.228258 1.000000
2.378370 -1.000000 1.000000 -0.000000 0.000000 1.000000 0.771742 0.584528
2.378370 1.000000 1.000000 -0.000000 0.000000 1.000000 0.543484 0.584528
-2.378370 1.000000 1.000000 -0.000000 0.000000 1.000000 0.543484 0.000000
-2.378370 -1.000000 1.000000 -0.000000 0.000000 1.000000 0.771742 0.000000
-2.378370 -1.000000 1.000000 -1.000000 0.000000 0.000000 0.771742 1.000000
-2.378370 1.000000 1.000000 -1.000000 0.000000 0.000000 0.771742 0.754232
-2.378370 1.000000 -1.000000 -1.000000 0.000000 0.000000 1.000000 0.754232
-2.378370 -1.000000 -1.000000 -1.000000 0.000000 0.000000 1.000000 1.000000
2.378370 1.000000 -1.000000 0.000000 0.000000 -1.000000 0.228258 0.584528
2.378370 -1.000000 -1.000000 0.000000 0.000000 -1.000000 0.000000 0.584528
-2.378370 -1.000000 -1.000000 0.000000 0.000000 -1.000000 0.000000 0.000000
-2.378370 1.000000 -1.000000 0.000000 0.000000 -1.000000 0.228258 0.000000
-2.378370 -1.000000 -1.000000 0.000000 -1.000000 -0.000000 0.771742 0.584528
2.378370 -1.000000 -1.000000 0.000000 -1.000000 -0.000000 0.771742 0.000000
2.378370 -1.000000 1.000000 0.000000 -1.000000 -0.000000 1.000000 0.000000
-2.378370 -1.000000 1.000000 0.000000 -1.000000 -0.000000 1.000000 0.584528
2.378370 2.381006 0.000000 1.000000 0.000000 -0.000000 0.114129 0.584528
2.378370 1.000000 -1.000000 0.000000 0.586495 -0.809953 0.228258 0.584528
-2.378370 1.000000 -1.000000 0.000000 0.586495 -0.809953 0.228258 0.000000
-2.378370 2.381006 0.000000 0.000000 0.586495 -0.809953 0.385871 0.000000
2.378370 2.381006 0.000000 0.000000 0.586495 -0.809953 0.385871 0.584528
-2.378370 1.000000 1.000000 0.000000 0.586495 0.809953 0.543484 0.000000
2.378370 1.000000 1.000000 0.000000 0.586495 0.809953 0.543484 0.584528
2.378370 2.381006 0.000000 0.000000 0.586495 0.809953 0.385871 0.584528
-2.378370 2.381006 0.000000 0.000000 0.586495 0.809953 0.385871 0.000000
-2.378370 2.381006 0.000000 -1.000000 -0.000000 -0.000000 0.885871 0.584528
4 0 1 2 3
4 4 5 6 7
4 8 9 10 11
4 12 13 14 15
4 16 17 18 19
3 2 1 20
4 21 22 23 24
4 25 26 27 28
3 10 9 29
