ply
format ascii 1.0
comment Created by Blender 2.78 (sub 0) - www.blender.org, source file: ''
element vertex 155
property float x
property float y
property float z
property float nx
property float ny
property float nz
property float s
property float t
element face 98
property list uchar uint vertex_indices
end_header
-0.132813 -0.090013 -0.298449 -0.167180 -0.071444 -0.983306 0.899077 0.754747
-0.113160 0.005832 -0.283568 -0.150670 0.384472 -0.910733 0.868778 0.976692
0.113160 0.005832 -0.283568 0.150639 0.384503 -0.910733 0.519857 0.976692
0.132813 -0.090013 -0.298449 0.167180 -0.071413 -0.983306 0.489558 0.754747
-0.147968 -0.090092 0.268422 -0.995941 0.077090 0.045869 0.023308 0.024524
-0.128283 0.005910 0.253516 -0.946104 0.320872 0.043428 0.247385 0.036015
-0.128283 0.005910 -0.253516 -0.946104 0.320902 -0.043397 0.247385 0.426864
-0.147968 -0.090092 -0.268422 -0.995941 0.077120 -0.045869 0.023308 0.438354
-0.111252 0.015818 0.252017 -0.056185 0.997955 0.029725 0.293637 0.037170
0.111252 0.015818 0.252017 0.056185 0.997955 0.029725 0.636673 0.037170
0.111252 0.015818 -0.252017 0.056185 0.997955 -0.029725 0.636673 0.425708
-0.111252 0.015818 -0.252017 -0.056185 0.997955 -0.029725 0.293637 0.425708
0.147968 -0.090092 -0.268422 0.995941 0.077090 -0.045869 0.907001 0.438354
0.128283 0.005910 -0.253516 0.946104 0.320872 -0.043428 0.682924 0.426864
0.128283 0.005910 0.253516 0.946104 0.320902 0.043397 0.682924 0.036015
0.147968 -0.090092 0.268422 0.995941 0.077120 0.045869 0.907001 0.024524
0.132813 -0.090013 0.298449 0.167180 -0.071444 0.983306 0.489558 0.708131
0.113160 0.005832 0.283568 0.150670 0.384472 0.910733 0.519857 0.486186
-0.113160 0.005832 0.283568 -0.150639 0.384503 0.910733 0.868778 0.486186
-0.132813 -0.090013 0.298449 -0.167180 -0.071413 0.983306 0.899077 0.708131
0.135000 -0.100000 -0.270000 0.059999 -0.997681 -0.031434 0.439570 0.486186
0.134762 -0.099051 -0.285777 0.066866 -0.977081 -0.202002 0.439204 0.474025
0.142421 -0.098073 -0.285361 0.379620 -0.903348 -0.199469 0.451012 0.474345
0.142800 -0.099094 -0.269847 0.377606 -0.925291 -0.034761 0.451596 0.486304
0.133939 -0.095293 -0.296481 0.144353 -0.675741 -0.722831 0.437935 0.463061
0.141802 -0.095234 -0.293443 0.581866 -0.550157 -0.598926 0.450057 0.463061
0.140819 -0.090038 -0.295643 0.633473 0.019929 -0.773461 0.477215 0.754802
0.141802 -0.095234 -0.293443 0.581866 -0.550157 -0.598926 0.475700 0.742890
0.133939 -0.095293 -0.296481 0.144353 -0.675741 -0.722831 0.487822 0.742633
0.146522 -0.090068 -0.284342 0.957244 0.096469 -0.272652 0.466317 0.755472
0.146108 -0.095258 -0.284909 0.868526 -0.427076 -0.251381 0.464719 0.743767
0.147681 -0.095366 -0.269253 0.886135 -0.461135 -0.045747 0.919024 0.438995
0.146108 -0.095258 -0.284909 0.868526 -0.427076 -0.251381 0.918449 0.451063
0.146522 -0.090068 -0.284342 0.957244 0.096469 -0.272652 0.906643 0.450626
0.142800 -0.099094 -0.269847 0.377606 -0.925291 -0.034761 0.930127 0.439452
0.142421 -0.098073 -0.285361 0.379620 -0.903348 -0.199469 0.930127 0.451412
0.146108 -0.095258 -0.284909 0.868526 -0.427076 -0.251381 0.462696 0.474694
0.112121 0.011112 -0.279958 0.103977 0.792657 -0.600665 0.521459 0.989032
0.120005 0.011054 -0.276940 0.458693 0.747459 -0.480483 0.509304 0.989016
0.121154 0.005856 -0.280755 0.587207 0.398419 -0.704550 0.507532 0.976861
0.111403 0.014870 -0.268084 0.057894 0.981964 -0.179968 0.522567 0.999818
0.119465 0.013891 -0.267972 0.302255 0.939299 -0.162236 0.510136 0.999818
0.119426 0.014911 -0.252146 0.312113 0.949583 -0.028748 0.649275 0.425807
0.119465 0.013891 -0.267972 0.302255 0.939299 -0.162236 0.649336 0.438007
0.111403 0.014870 -0.268084 0.057894 0.981964 -0.179968 0.636906 0.438094
0.125834 0.011183 -0.252710 0.737754 0.674123 -0.035463 0.670333 0.426242
0.124304 0.011075 -0.268403 0.713431 0.671438 -0.200354 0.670261 0.438339
0.126846 0.005886 -0.269448 0.903165 0.344523 -0.255989 0.682680 0.439144
0.121154 0.005856 -0.280755 0.587207 0.398419 -0.704550 0.681453 0.449944
0.120005 0.011054 -0.276940 0.458693 0.747459 -0.480483 0.669186 0.449315
0.124304 0.011075 -0.268403 0.713431 0.671438 -0.200354 0.498333 0.989997
0.135000 -0.100000 0.270000 0.060030 -0.997681 0.031434 0.439570 0.902449
0.142802 -0.099093 0.269847 0.377697 -0.925260 0.034761 0.451599 0.902331
0.142423 -0.098073 0.285357 0.379742 -0.903348 0.199347 0.451015 0.914287
0.134762 -0.099052 0.285773 0.066866 -0.977081 0.201941 0.439204 0.914607
0.147682 -0.095364 0.269253 0.886166 -0.461043 0.045747 0.462696 0.901873
0.146107 -0.095256 0.284913 0.868557 -0.426923 0.251534 0.462696 0.913944
0.146521 -0.090068 0.284346 0.957213 0.096469 0.272713 0.906643 0.012249
0.146107 -0.095256 0.284913 0.868557 -0.426923 0.251534 0.918445 0.011812
0.147682 -0.095364 0.269253 0.886166 -0.461043 0.045747 0.919021 0.023884
0.140817 -0.090038 0.295645 0.633412 0.019837 0.773522 0.905277 0.001457
0.141800 -0.095235 0.293444 0.581713 -0.550279 0.598926 0.917273 0.000841
0.133939 -0.095294 0.296480 0.144292 -0.675832 0.722770 0.487822 0.720249
0.141800 -0.095235 0.293444 0.581713 -0.550279 0.598926 0.475703 0.719992
0.140817 -0.090038 0.295645 0.633412 0.019837 0.773522 0.477218 0.708076
0.134762 -0.099052 0.285773 0.066866 -0.977081 0.201941 0.486553 0.731257
0.142423 -0.098073 0.285357 0.379742 -0.903348 0.199347 0.474742 0.731257
0.141800 -0.095235 0.293444 0.581713 -0.550279 0.598926 0.450054 0.925574
0.111403 0.014870 0.268088 0.057894 0.981933 0.179998 0.636906 0.024782
0.119463 0.013891 0.267977 0.302164 0.939299 0.162328 0.649333 0.024868
0.119424 0.014912 0.252146 0.312052 0.949614 0.028779 0.649271 0.037071
0.112121 0.011111 0.279960 0.104007 0.792627 0.600726 0.638013 0.014044
0.120008 0.011052 0.276941 0.458815 0.747368 0.480483 0.650172 0.014044
0.121156 0.005856 0.280753 0.587268 0.398389 0.704520 0.507530 0.486017
0.120008 0.011052 0.276941 0.458815 0.747368 0.480483 0.509300 0.473865
0.112121 0.011111 0.279960 0.104007 0.792627 0.600726 0.521459 0.473850
0.126847 0.005886 0.269444 0.903195 0.344523 0.255928 0.496650 0.485211
0.124304 0.011076 0.268398 0.713370 0.671529 0.200232 0.498334 0.472877
0.125833 0.011184 0.252710 0.737693 0.674184 0.035432 0.670330 0.036636
0.124304 0.011076 0.268398 0.713370 0.671529 0.200232 0.670257 0.024543
0.126847 0.005886 0.269444 0.903195 0.344523 0.255928 0.682680 0.023737
0.124304 0.011076 0.268398 0.713370 0.671529 0.200232 0.659798 0.024543
-0.135000 -0.100000 -0.270000 -0.060030 -0.997681 -0.031434 0.023308 0.486186
-0.142802 -0.099093 -0.269847 -0.377697 -0.925260 -0.034761 0.011279 0.486304
-0.142423 -0.098073 -0.285357 -0.379742 -0.903348 -0.199347 0.011863 0.474348
-0.134762 -0.099052 -0.285773 -0.066866 -0.977081 -0.201941 0.023675 0.474028
-0.147682 -0.095364 -0.269253 -0.886166 -0.461043 -0.045747 0.000182 0.486762
-0.146107 -0.095256 -0.284913 -0.868557 -0.426923 -0.251534 0.000182 0.474691
-0.146521 -0.090068 -0.284346 -0.957213 0.096469 -0.272713 0.023667 0.450629
-0.146107 -0.095256 -0.284913 -0.868557 -0.426923 -0.251534 0.011864 0.451066
-0.147682 -0.095364 -0.269253 -0.886166 -0.461043 -0.045747 0.011288 0.438995
-0.140817 -0.090038 -0.295645 -0.633412 0.019837 -0.773522 0.025032 0.461422
-0.141800 -0.095235 -0.293444 -0.581713 -0.550279 -0.598926 0.013037 0.462037
-0.133939 -0.095294 -0.296480 -0.144292 -0.675832 -0.722770 0.900814 0.742630
-0.141800 -0.095235 -0.293444 -0.581713 -0.550279 -0.598926 0.912932 0.742886
-0.140817 -0.090038 -0.295645 -0.633412 0.019837 -0.773522 0.911417 0.754802
-0.134762 -0.099052 -0.285773 -0.066866 -0.977081 -0.201941 0.902082 0.731621
-0.142423 -0.098073 -0.285357 -0.379742 -0.903348 -0.199347 0.913894 0.731621
-0.141800 -0.095235 -0.293444 -0.581713 -0.550279 -0.598926 0.012824 0.463061
-0.111403 0.014870 -0.268088 -0.057894 0.981933 -0.179998 0.293404 0.438097
-0.119463 0.013891 -0.267977 -0.302164 0.939299 -0.162328 0.280977 0.438011
-0.119424 0.014912 -0.252146 -0.312052 0.949614 -0.028779 0.281038 0.425807
-0.112121 0.011111 -0.279960 -0.104007 0.792627 -0.600726 0.292296 0.448834
-0.120008 0.011052 -0.276941 -0.458815 0.747368 -0.480483 0.280137 0.448834
-0.121156 0.005856 -0.280753 -0.587268 0.398389 -0.704520 0.881106 0.976861
-0.120008 0.011052 -0.276941 -0.458815 0.747368 -0.480483 0.879335 0.989013
-0.112121 0.011111 -0.279960 -0.104007 0.792627 -0.600726 0.867176 0.989029
-0.126847 0.005886 -0.269444 -0.903195 0.344523 -0.255928 0.891985 0.977668
-0.124304 0.011076 -0.268398 -0.713370 0.671529 -0.200232 0.890301 0.990001
-0.125833 0.011184 -0.252710 -0.737693 0.674184 -0.035432 0.259980 0.426242
-0.124304 0.011076 -0.268398 -0.713370 0.671529 -0.200232 0.260052 0.438336
-0.126847 0.005886 -0.269444 -0.903195 0.344523 -0.255928 0.247629 0.439141
-0.124304 0.011076 -0.268398 -0.713370 0.671529 -0.200232 0.270511 0.438336
-0.135000 -0.100000 0.270000 -0.059999 -0.997681 0.031434 0.023308 0.902449
-0.134762 -0.099051 0.285777 -0.066866 -0.977081 0.202002 0.023675 0.914610
-0.142421 -0.098073 0.285361 -0.379620 -0.903348 0.199469 0.011867 0.914290
-0.142800 -0.099094 0.269847 -0.377606 -0.925291 0.034761 0.011282 0.902331
-0.133939 -0.095293 0.296481 -0.144353 -0.675741 0.722831 0.024944 0.925575
-0.141802 -0.095234 0.293443 -0.581866 -0.550157 0.598926 0.012821 0.925575
-0.140819 -0.090038 0.295643 -0.633473 0.019929 0.773461 0.911420 0.708076
-0.141802 -0.095234 0.293443 -0.581866 -0.550157 0.598926 0.912935 0.719989
-0.133939 -0.095293 0.296481 -0.144353 -0.675741 0.722831 0.900813 0.720246
-0.146522 -0.090068 0.284342 -0.957244 0.096469 0.272652 0.922319 0.707407
-0.146108 -0.095258 0.284909 -0.868526 -0.427076 0.251381 0.923916 0.719111
-0.147681 -0.095366 0.269253 -0.886135 -0.461135 0.045747 0.011285 0.023884
-0.146108 -0.095258 0.284909 -0.868526 -0.427076 0.251381 0.011861 0.011816
-0.146522 -0.090068 0.284342 -0.957244 0.096469 0.272652 0.023666 0.012252
-0.142800 -0.099094 0.269847 -0.377606 -0.925291 0.034761 0.000182 0.023426
-0.142421 -0.098073 0.285361 -0.379620 -0.903348 0.199469 0.000182 0.011467
-0.146108 -0.095258 0.284909 -0.868526 -0.427076 0.251381 0.000182 0.913941
-0.119426 0.014911 0.252146 -0.312113 0.949583 0.028748 0.281035 0.037071
-0.119465 0.013891 0.267972 -0.302255 0.939299 0.162236 0.280973 0.024871
-0.111403 0.014870 0.268084 -0.057894 0.981964 0.179968 0.293404 0.024785
-0.125834 0.011183 0.252710 -0.737754 0.674123 0.035463 0.259976 0.036636
-0.124304 0.011075 0.268403 -0.713431 0.671438 0.200354 0.260049 0.024539
-0.126846 0.005886 0.269448 -0.903165 0.344523 0.255989 0.247629 0.023734
-0.121154 0.005856 0.280755 -0.587207 0.398419 0.704550 0.248856 0.012934
-0.120005 0.011054 0.276940 -0.458693 0.747459 0.480483 0.261124 0.013563
-0.112121 0.011112 0.279958 -0.103977 0.792657 0.600665 0.867176 0.473847
-0.120005 0.011054 0.276940 -0.458693 0.747459 0.480483 0.879332 0.473862
-0.121154 0.005856 0.280755 -0.587207 0.398419 0.704550 0.881103 0.486018
-0.111403 0.014870 0.268084 -0.057894 0.981964 0.179968 0.866069 0.463061
-0.119465 0.013891 0.267972 -0.302255 0.939299 0.162236 0.878499 0.463061
-0.124304 0.011075 0.268403 -0.713431 0.671438 0.200354 0.270511 0.024539
-0.120005 0.011054 0.276940 -0.458693 0.747459 0.480483 0.280141 0.014044
0.147681 -0.095366 -0.269253 0.886135 -0.461135 -0.045747 0.462696 0.486762
0.126846 0.005886 -0.269448 0.903165 0.344523 -0.255989 0.496650 0.977667
0.146521 -0.090068 0.284346 0.957213 0.096469 0.272713 0.466317 0.707407
0.133939 -0.095294 0.296480 0.144292 -0.675832 0.722770 0.437935 0.925574
-0.112121 0.011112 0.279958 -0.103977 0.792657 0.600665 0.292297 0.014044
-0.140819 -0.090038 0.295643 -0.633473 0.019929 0.773461 0.025032 0.001457
-0.147681 -0.095366 0.269253 -0.886135 -0.461135 0.045747 0.000182 0.901873
-0.146521 -0.090068 -0.284346 -0.957213 0.096469 -0.272713 0.922319 0.755472
-0.133939 -0.095294 -0.296480 -0.144292 -0.675832 -0.722770 0.024943 0.463061
0.112121 0.011112 -0.279958 0.103977 0.792657 -0.600665 0.638013 0.448834
4 0 1 2 3
4 4 5 6 7
4 8 9 10 11
4 12 13 14 15
4 16 17 18 19
4 20 21 22 23
4 21 24 25 22
4 3 26 27 28
4 26 29 30 27
4 12 31 32 33
4 31 34 35 32
3 22 25 36
4 2 37 38 39
4 37 40 41 38
4 10 42 43 44
4 42 45 46 43
4 13 47 46 45
4 47 48 49 46
3 38 41 50
4 51 52 53 54
4 52 55 56 53
4 15 57 58 59
4 57 60 61 58
4 16 62 63 64
4 62 65 66 63
3 53 56 67
4 9 68 69 70
4 68 71 72 69
4 17 73 74 75
4 73 76 77 74
4 14 78 79 80
4 78 70 69 79
3 69 72 81
4 82 83 84 85
4 83 86 87 84
4 7 88 89 90
4 88 91 92 89
4 0 93 94 95
4 93 96 97 94
3 84 87 98
4 11 99 100 101
4 99 102 103 100
4 1 104 105 106
4 104 107 108 105
4 6 109 110 111
4 109 101 100 110
3 100 103 112
4 113 114 115 116
4 114 117 118 115
4 19 119 120 121
4 119 122 123 120
4 4 124 125 126
4 124 127 128 125
3 115 118 129
4 8 130 131 132
4 130 133 134 131
4 5 135 134 133
4 135 136 137 134
4 18 138 139 140
4 138 141 142 139
3 131 143 144
4 51 20 23 52
4 52 23 145 55
4 59 31 12 15
4 3 2 39 26
4 26 39 146 29
4 33 47 13 12
4 10 9 70 42
4 42 70 78 45
4 45 78 14 13
4 17 16 64 73
4 73 64 147 76
4 80 57 15 14
4 113 51 54 114
4 114 54 148 117
4 121 62 16 19
4 9 8 132 68
4 68 132 149 71
4 75 138 18 17
4 5 4 126 135
4 135 126 150 136
4 140 119 19 18
4 82 113 116 83
4 83 116 151 86
4 90 124 4 7
4 8 11 101 130
4 130 101 109 133
4 133 109 6 5
4 1 0 95 104
4 104 95 152 107
4 111 88 7 6
4 20 82 85 21
4 21 85 153 24
4 28 93 0 3
4 11 10 44 99
4 99 44 154 102
4 106 37 2 1
4 82 20 51 113
