ply
format ascii 1.0
comment Created by Blender 2.77 (sub 0) - www.blender.org, source file: ''
element vertex 25
property float x
property float y
property float z
property float nx
property float ny
property float nz
property float s
property float t
element face 16
property list uchar uint vertex_indices
end_header
-5.000000 0.000000 5.000000 0.000000 1.000000 0.000000 0.749950 0.749950
-10.000000 0.000000 5.000000 0.000000 1.000000 0.000000 0.999900 0.749950
-10.000000 0.000000 10.000000 0.000000 1.000000 0.000000 0.999900 0.999900
-5.000000 0.000000 10.000000 0.000000 1.000000 0.000000 0.749950 0.999900
5.000000 0.000000 5.000000 0.000000 1.000000 0.000000 0.250050 0.749950
0.000000 0.000000 5.000000 0.000000 1.000000 0.000000 0.500000 0.749950
0.000000 0.000000 10.000000 0.000000 1.000000 0.000000 0.500000 0.999900
5.000000 0.000000 10.000000 0.000000 1.000000 0.000000 0.250050 0.999900
5.000000 0.000000 -5.000000 0.000000 1.000000 0.000000 0.250050 0.250050
0.000000 0.000000 -5.000000 0.000000 1.000000 0.000000 0.500000 0.250050
0.000000 0.000000 0.000000 0.000000 1.000000 0.000000 0.500000 0.500000
5.000000 0.000000 0.000000 0.000000 1.000000 0.000000 0.250050 0.500000
-5.000000 0.000000 -5.000000 0.000000 1.000000 0.000000 0.749950 0.250050
-10.000000 0.000000 -5.000000 0.000000 1.000000 0.000000 0.999900 0.250050
-10.000000 0.000000 0.000000 0.000000 1.000000 0.000000 0.999900 0.500000
-5.000000 0.000000 0.000000 0.000000 1.000000 0.000000 0.749950 0.500000
0.000000 0.000000 -10.000000 0.000000 1.000000 0.000000 0.500000 0.000100
-5.000000 0.000000 -10.000000 0.000000 1.000000 0.000000 0.749950 0.000100
-10.000000 0.000000 -10.000000 0.000000 1.000000 0.000000 0.999900 0.000100
10.000000 0.000000 -5.000000 0.000000 1.000000 0.000000 0.000100 0.250051
10.000000 0.000000 0.000000 0.000000 1.000000 0.000000 0.000101 0.500000
10.000000 0.000000 -10.000000 0.000000 1.000000 0.000000 0.000100 0.000101
5.000000 0.000000 -10.000000 0.000000 1.000000 0.000000 0.250050 0.000100
10.000000 0.000000 5.000000 0.000000 1.000000 0.000000 0.000101 0.749950
10.000000 0.000000 10.000000 0.000000 1.000000 0.000000 0.000101 0.999900
4 0 1 2 3
4 4 5 6 7
4 8 9 10 11
4 12 13 14 15
4 9 12 15 10
4 16 17 12 9
4 17 18 13 12
4 19 8 11 20
4 21 22 8 19
4 22 16 9 8
4 23 4 7 24
4 20 11 4 23
4 11 10 5 4
4 5 0 3 6
4 10 15 0 5
4 15 14 1 0
