ply
format ascii 1.0
comment Created by Blender 2.78 (sub 0) - www.blender.org, source file: 'translation_gizmo.ply'
element vertex 80
property float x
property float y
property float z
property float nx
property float ny
property float nz
property float s
property float t
element face 30
property list uchar uint vertex_indices
end_header
0.000000 0.108663 0.700000 0.362908 0.876124 0.317341 0.553400 0.000318
0.000000 0.000000 1.000000 0.362908 0.876124 0.317341 0.502498 0.387553
0.076836 0.076836 0.700000 0.362908 0.876124 0.317341 0.451598 0.000318
0.076836 0.076836 0.700000 0.876124 0.362908 0.317341 0.204556 0.246724
0.000000 0.000000 1.000000 0.876124 0.362908 0.317341 0.153656 0.633959
0.108663 0.000000 0.700000 0.876124 0.362908 0.317341 0.102755 0.246724
0.108663 0.000000 0.700000 0.876124 -0.362908 0.317341 0.450963 0.000318
0.000000 0.000000 1.000000 0.876124 -0.362908 0.317341 0.400061 0.387553
0.076836 -0.076836 0.700000 0.876124 -0.362908 0.317341 0.349161 0.000318
0.076836 -0.076836 0.700000 0.362908 -0.876124 0.317341 0.758274 0.000318
0.000000 0.000000 1.000000 0.362908 -0.876124 0.317341 0.707374 0.387553
0.000000 -0.108663 0.700000 0.362908 -0.876124 0.317341 0.656472 0.000318
0.000000 -0.108663 0.700000 -0.362908 -0.876124 0.317341 0.348525 0.000318
0.000000 0.000000 1.000000 -0.362908 -0.876124 0.317341 0.297624 0.387553
-0.076836 -0.076836 0.700000 -0.362908 -0.876124 0.317341 0.246724 0.000318
-0.076836 -0.076836 0.700000 -0.876124 -0.362908 0.317341 0.102119 0.246724
0.000000 0.000000 1.000000 -0.876124 -0.362908 0.317341 0.051219 0.633959
-0.108663 0.000000 0.700000 -0.876124 -0.362908 0.317341 0.000318 0.246724
-0.108663 0.000000 0.700000 -0.876124 0.362908 0.317341 0.348525 0.388188
0.000000 0.000000 1.000000 -0.876124 0.362908 0.317341 0.297624 0.775423
-0.076836 0.076836 0.700000 -0.876124 0.362908 0.317341 0.246724 0.388188
-0.076836 0.076836 0.700000 -0.362908 0.876124 0.317341 0.655837 0.000318
0.000000 0.000000 1.000000 -0.362908 0.876124 0.317341 0.604937 0.387553
0.000000 0.108663 0.700000 -0.362908 0.876124 0.317341 0.554035 0.000318
-0.076836 0.076836 0.700000 0.000000 0.000000 -1.000000 0.000318 0.072303
0.000000 0.108663 0.700000 0.000000 0.000000 -1.000000 0.072302 0.000318
0.000000 0.031531 0.700000 0.000000 0.000000 -1.000000 0.108433 0.087545
-0.022296 0.022296 0.700000 0.000000 0.000000 -1.000000 0.087545 0.108433
0.022296 -0.022296 0.700000 0.382673 -0.923884 0.000000 0.878978 0.857167
0.000000 -0.031531 0.700000 0.382673 -0.923884 0.000000 0.849438 0.857167
0.000000 -0.031531 0.000000 0.382673 -0.923884 0.000000 0.849438 0.000318
0.022296 -0.022296 0.000000 0.382673 -0.923884 0.000000 0.878978 0.000318
0.076836 0.076836 0.700000 0.000000 0.000000 -1.000000 0.174103 0.000318
0.022296 0.022296 0.700000 0.000000 0.000000 -1.000000 0.137973 0.087545
0.076836 -0.076836 0.700000 0.000000 -0.000000 -1.000000 0.246088 0.174103
0.000000 -0.108663 0.700000 0.000000 -0.000000 -1.000000 0.174105 0.246088
0.000000 -0.031531 0.700000 0.000000 -0.000000 -1.000000 0.137973 0.158861
0.022296 -0.022296 0.700000 0.000000 -0.000000 -1.000000 0.158862 0.137973
0.108663 0.000000 0.700000 0.000000 0.000000 -1.000000 0.246088 0.072302
0.031531 0.000000 0.700000 0.000000 0.000000 -1.000000 0.158861 0.108433
-0.108663 0.000000 0.700000 -0.000000 0.000000 -1.000000 0.000318 0.174105
-0.031531 0.000000 0.700000 -0.000000 0.000000 -1.000000 0.087545 0.137973
-0.076836 -0.076836 0.700000 -0.000000 0.000000 -1.000000 0.072303 0.246088
-0.022296 -0.022296 0.700000 -0.000000 0.000000 -1.000000 0.108433 0.158862
-0.022296 0.022296 0.000000 -0.000000 0.000000 -1.000000 0.370049 0.388188
0.000000 0.031531 0.000000 -0.000000 0.000000 -1.000000 0.399589 0.388188
0.022296 0.022296 0.000000 -0.000000 0.000000 -1.000000 0.420477 0.409076
0.031531 0.000000 0.000000 0.000000 0.000000 -1.000000 0.420477 0.438616
0.022296 -0.022296 0.000000 0.000000 0.000000 -1.000000 0.399590 0.459505
0.000000 -0.031531 0.000000 0.000000 0.000000 -1.000000 0.370050 0.459505
-0.022296 -0.022296 0.000000 0.000000 0.000000 -1.000000 0.349161 0.438617
-0.031531 0.000000 0.000000 0.000000 -0.000000 -1.000000 0.349161 0.409077
0.022296 0.022296 0.700000 0.923884 0.382673 0.000000 0.848802 0.857167
0.031531 0.000000 0.700000 0.923884 0.382673 0.000000 0.819261 0.857167
0.031531 0.000000 0.000000 0.923884 0.382673 0.000000 0.819261 0.000318
0.022296 0.022296 0.000000 0.923884 0.382673 0.000000 0.848801 0.000318
-0.031531 0.000000 0.700000 -0.923884 0.382673 0.000000 0.999682 0.857167
-0.022296 0.022296 0.700000 -0.923884 0.382673 0.000000 0.970142 0.857167
-0.022296 0.022296 0.000000 -0.923884 0.382673 0.000000 0.970143 0.000318
-0.031531 0.000000 0.000000 -0.923884 0.382673 0.000000 0.999682 0.000318
0.000000 -0.031531 0.700000 -0.382673 -0.923884 0.000000 0.818626 0.857167
-0.022296 -0.022296 0.700000 -0.382673 -0.923884 0.000000 0.789085 0.857167
-0.022296 -0.022296 0.000000 -0.382673 -0.923884 0.000000 0.789086 0.000318
0.000000 -0.031531 0.000000 -0.382673 -0.923884 0.000000 0.818626 0.000318
0.031531 0.000000 0.700000 0.923884 -0.382673 0.000000 0.939330 0.857167
0.022296 -0.022296 0.700000 0.923884 -0.382673 0.000000 0.909790 0.857167
0.022296 -0.022296 0.000000 0.923884 -0.382673 0.000000 0.909790 0.000318
0.031531 0.000000 0.000000 0.923884 -0.382673 0.000000 0.939330 0.000318
0.000000 0.031531 0.700000 0.382673 0.923884 0.000000 0.788450 0.857167
0.022296 0.022296 0.700000 0.382673 0.923884 0.000000 0.758909 0.857167
0.022296 0.022296 0.000000 0.382673 0.923884 0.000000 0.758910 0.000318
0.000000 0.031531 0.000000 0.382673 0.923884 0.000000 0.788450 0.000318
-0.022296 0.022296 0.700000 -0.382673 0.923884 0.000000 0.969506 0.857167
0.000000 0.031531 0.700000 -0.382673 0.923884 0.000000 0.939966 0.857167
0.000000 0.031531 0.000000 -0.382673 0.923884 0.000000 0.939966 0.000318
-0.022296 0.022296 0.000000 -0.382673 0.923884 0.000000 0.969506 0.000318
-0.022296 -0.022296 0.700000 -0.923884 -0.382673 0.000000 0.909154 0.857167
-0.031531 0.000000 0.700000 -0.923884 -0.382673 0.000000 0.879614 0.857167
-0.031531 0.000000 0.000000 -0.923884 -0.382673 0.000000 0.879614 0.000318
-0.022296 -0.022296 0.000000 -0.923884 -0.382673 0.000000 0.909154 0.000318
3 0 1 2
3 3 4 5
3 6 7 8
3 9 10 11
3 12 13 14
3 15 16 17
3 18 19 20
3 21 22 23
4 24 25 26 27
4 28 29 30 31
4 25 32 33 26
4 34 35 36 37
4 38 34 37 39
4 40 24 27 41
4 32 38 39 33
4 42 40 41 43
4 35 42 43 36
3 44 45 46
3 46 47 48
3 48 49 50
3 50 51 44
3 44 46 48
3 48 50 44
4 52 53 54 55
4 56 57 58 59
4 60 61 62 63
4 64 65 66 67
4 68 69 70 71
4 72 73 74 75
4 76 77 78 79
